<?xml version="1.0" standalone="no"?>
<!DOCTYPE svg PUBLIC "-//W3C//DTD SVG 20010904//EN"
 "http://www.w3.org/TR/2001/REC-SVG-20010904/DTD/svg10.dtd">
<svg version="1.0" xmlns="http://www.w3.org/2000/svg"
 width="80.000000px" height="80.000000px" viewBox="0 0 2200.000000 841.000000"
 preserveAspectRatio="xMidYMid meet">

<g transform="translate(0.000000,841.000000) scale(0.100000,-0.100000)"
fill="#000000" stroke="none">
<path d="M16070 5854 c-87 -18 -231 -91 -310 -157 -118 -97 -232 -271 -290
-439 -57 -168 -65 -226 -65 -448 0 -193 2 -211 29 -315 64 -245 186 -454 347
-592 59 -50 196 -143 211 -143 19 0 -3 -54 -102 -255 -176 -355 -419 -753
-596 -975 -152 -190 -304 -312 -367 -296 -110 27 -203 323 -251 806 -36 352
-41 481 -41 1055 0 552 1 589 24 765 22 171 22 188 8 222 -9 21 -30 46 -48 57
-73 45 -286 52 -424 15 -121 -32 -254 -126 -325 -229 -115 -167 -169 -366
-195 -719 -17 -229 -34 -340 -76 -510 -137 -547 -446 -1113 -737 -1347 -97
-78 -168 -112 -248 -117 -103 -7 -150 33 -180 149 -13 51 -15 97 -11 234 5
196 32 366 103 661 110 460 145 618 169 758 82 488 35 802 -148 993 -71 74
-148 116 -257 139 -240 51 -524 -69 -838 -353 -231 -210 -532 -603 -762 -995
-41 -70 -76 -125 -78 -124 -2 2 12 75 32 162 77 351 110 667 90 841 -6 47 -9
51 -35 55 -16 3 -32 2 -35 -1 -3 -3 -16 -6 -27 -6 -17 0 -21 -5 -19 -22 2 -17
-1 -21 -11 -17 -8 3 -18 0 -22 -6 -5 -8 -11 -8 -21 1 -10 8 -14 8 -14 1 0 -6
-10 -16 -21 -23 -12 -6 -19 -7 -15 -1 3 5 0 12 -8 15 -9 4 -13 -1 -11 -11 1
-9 0 -11 -2 -4 -3 6 -12 12 -21 12 -13 0 -13 2 4 15 17 13 17 14 2 15 -18 0
-22 -9 -19 -42 1 -10 -3 -18 -9 -18 -7 0 -9 -7 -5 -17 5 -14 4 -15 -6 -6 -9
10 -10 15 0 27 8 10 9 16 1 21 -5 3 -10 1 -10 -6 0 -6 -8 -9 -19 -6 -11 2 -33
-3 -49 -13 -17 -10 -34 -16 -38 -12 -4 4 -4 1 0 -5 4 -8 1 -13 -8 -14 -36 -3
-41 -6 -38 -18 2 -9 -5 -12 -22 -9 -14 3 -31 1 -38 -3 -10 -6 -8 -9 7 -10 11
-1 23 -1 26 -1 4 1 9 -8 12 -19 5 -20 5 -20 -14 -3 -18 16 -19 16 -19 -5 0
-13 -4 -20 -11 -16 -6 4 -8 12 -6 19 3 8 -7 12 -31 11 -41 0 -51 -15 -22 -33
13 -8 20 -8 20 -1 0 5 4 7 10 4 18 -11 -12 -30 -49 -30 -23 0 -35 -4 -34 -12
2 -7 -4 -10 -12 -6 -13 5 -13 7 2 19 10 7 26 14 36 14 10 0 15 4 12 10 -3 5
-16 8 -28 6 -12 -2 -29 2 -37 8 -13 10 -13 9 -1 -7 13 -16 12 -19 -7 -24 -12
-3 -22 -12 -22 -19 0 -8 -7 -14 -16 -14 -8 0 -13 4 -10 9 8 13 -19 8 -36 -7
-11 -9 -17 -9 -26 0 -9 9 -12 8 -12 -6 0 -10 -5 -14 -11 -10 -6 3 -15 1 -19
-6 -6 -9 -12 -9 -29 -1 -14 8 -21 8 -21 1 0 -5 7 -10 16 -10 10 0 14 -7 12
-17 -2 -10 -9 -17 -16 -16 -13 3 -13 4 -42 -157 -157 -858 -596 -1815 -961
-2096 -125 -96 -273 -139 -347 -100 -42 22 -78 77 -97 151 -18 70 -20 268 -4
413 28 261 118 713 225 1131 30 118 53 220 50 228 -3 7 0 13 6 13 6 0 8 3 5 6
-4 4 -13 1 -22 -6 -8 -7 -15 -9 -15 -4 0 5 -4 3 -9 -4 -4 -7 -20 -14 -36 -16
-15 -2 -34 -10 -40 -20 -13 -17 -30 -23 -20 -6 3 6 1 10 -6 10 -7 0 -9 -8 -6
-21 3 -12 3 -18 0 -15 -4 3 -12 1 -20 -6 -8 -6 -13 -7 -12 -2 4 23 -3 23 -23
2 -13 -13 -20 -19 -15 -14 11 15 9 23 -8 23 -8 0 -12 -4 -9 -9 3 -4 -2 -8 -10
-8 -9 0 -16 -5 -16 -12 0 -6 -3 -8 -7 -5 -3 4 -12 2 -20 -4 -10 -9 -13 -8 -13
2 0 11 -2 11 -9 -1 -6 -8 -7 -18 -4 -24 3 -5 1 -6 -6 -2 -6 4 -9 11 -6 16 6
10 -35 4 -44 -6 -3 -4 3 -4 13 0 16 6 17 4 6 -9 -8 -9 -21 -14 -30 -12 -9 2
-25 -2 -34 -9 -10 -7 -25 -10 -34 -7 -10 4 -13 2 -8 -5 4 -7 1 -12 -8 -12 -8
0 -20 -8 -25 -17 -9 -16 -10 -15 -11 7 l-1 25 -20 -28 c-19 -25 -48 -30 -33
-5 5 7 2 8 -5 4 -7 -5 -16 -18 -21 -30 -7 -17 -9 -18 -9 -3 -1 10 -6 15 -11
12 -6 -4 -8 -11 -5 -16 4 -5 1 -9 -4 -9 -6 0 -11 5 -11 10 0 6 -4 10 -9 10 -6
0 -8 -8 -6 -18 2 -11 -3 -19 -10 -19 -8 0 -12 4 -9 8 2 4 0 10 -5 13 -5 3 -11
-4 -14 -15 -5 -17 -11 -20 -31 -17 -15 3 -31 -1 -37 -8 -6 -8 -16 -11 -21 -8
-6 4 -5 10 3 16 11 8 11 9 -1 5 -8 -2 -15 -14 -14 -26 1 -21 -10 -27 -63 -34
-11 -2 -28 -9 -36 -15 -9 -8 -16 -9 -19 -3 -1 6 -13 8 -26 5 -17 -5 -20 -10
-12 -19 8 -10 8 -15 -1 -21 -7 -4 -9 -3 -6 3 4 6 0 13 -8 17 -14 5 -19 -5 -16
-29 1 -5 -5 -2 -13 9 -15 18 -15 18 -14 0 1 -27 -48 -236 -93 -395 -55 -197
-129 -390 -219 -574 -99 -203 -182 -327 -290 -436 -108 -109 -189 -152 -289
-152 -200 -1 -316 134 -367 424 -22 127 -14 465 14 619 16 89 17 107 6 121 -8
9 -11 19 -7 24 5 4 3 5 -4 2 -6 -4 -9 -16 -6 -27 3 -11 10 -17 16 -13 6 4 7 1
2 -6 -5 -9 -10 -10 -18 -2 -17 17 -31 13 -17 -4 7 -8 9 -15 5 -15 -5 0 -1 -8
9 -19 16 -17 15 -18 -11 -16 -42 3 -45 4 -38 15 4 6 -5 10 -19 10 -14 0 -26 5
-26 10 0 6 -5 10 -11 10 -5 0 -7 -5 -4 -11 4 -5 -1 -20 -11 -32 -10 -12 -13
-17 -5 -10 8 7 23 8 41 3 16 -5 32 -5 36 -2 5 4 3 0 -4 -9 -15 -19 -50 -31
-57 -19 -3 4 -14 6 -25 3 -14 -4 -20 0 -20 13 0 9 -3 14 -7 11 -3 -4 -12 1
-20 11 -7 9 -13 13 -12 7 3 -26 -2 -34 -18 -28 -15 5 -16 3 -6 -7 10 -11 15
-11 28 0 14 11 19 7 16 -13 -1 -5 2 -6 6 -4 5 2 17 1 28 -4 13 -6 5 -7 -23 -3
-30 4 -42 2 -37 -5 3 -6 3 -11 -2 -11 -4 0 -14 12 -20 27 -10 21 -10 28 0 35
9 6 9 8 -1 8 -7 0 -15 -7 -18 -15 -5 -12 -9 -13 -20 -4 -11 9 -14 9 -10 -2 11
-37 15 -79 6 -79 -6 0 -10 6 -10 14 0 8 -5 18 -12 22 -6 4 -8 3 -4 -4 3 -6 2
-13 -4 -17 -6 -4 -7 -12 -3 -18 3 -7 -4 -3 -17 8 -13 11 -20 14 -15 6 6 -11 4
-13 -8 -8 -11 4 -22 -2 -33 -17 -15 -23 -45 -43 -43 -28 5 31 -3 34 -29 9 -20
-19 -34 -25 -47 -21 -12 5 -22 1 -31 -11 -12 -16 -14 -16 -14 -3 0 18 -30 33
-30 15 -1 -16 -48 -50 -60 -42 -6 3 -10 2 -10 -4 0 -6 -7 -8 -15 -5 -8 4 -13
10 -10 14 3 5 1 11 -5 15 -10 6 -14 -8 -10 -35 1 -11 -3 -10 -21 5 -19 17 -22
18 -16 3 5 -13 1 -18 -13 -18 -11 0 -20 -6 -20 -12 0 -7 -5 -5 -11 4 -12 22 6
62 24 52 9 -5 9 -4 0 6 -7 7 -17 9 -25 4 -7 -5 -16 -9 -20 -9 -15 0 -20 -15
-4 -15 13 0 15 -4 6 -20 -13 -25 -39 -15 -34 13 4 21 4 21 -5 2 -5 -11 -10
-15 -10 -9 -1 6 -15 11 -31 12 -17 0 -28 -4 -25 -9 4 -5 1 -9 -6 -9 -7 0 -10
-2 -7 -5 3 -3 17 -1 31 4 20 8 28 6 41 -7 14 -16 13 -19 -4 -30 -14 -9 -20 -9
-20 -1 0 7 -10 5 -25 -5 -14 -9 -30 -14 -35 -11 -6 4 -7 -1 -3 -11 5 -14 3
-16 -13 -10 -34 13 -37 12 -54 -23 -11 -21 -20 -30 -24 -23 -4 7 -2 12 3 12 6
0 11 8 11 17 0 13 -3 14 -12 5 -7 -7 -22 -12 -35 -12 -15 0 -23 -6 -24 -17 -1
-12 -4 -10 -9 7 -4 14 -8 19 -9 11 -1 -7 -7 -11 -16 -7 -8 3 -21 -1 -27 -8 -9
-10 -20 -11 -37 -5 -20 8 -22 7 -17 -8 4 -10 4 -14 0 -10 -4 4 -14 1 -22 -6
-13 -9 -14 -9 -8 1 4 6 4 12 -1 11 -4 0 -42 -52 -83 -116 -222 -342 -539 -662
-835 -843 -287 -176 -646 -274 -940 -256 -280 18 -478 80 -677 212 -237 157
-416 397 -542 725 -23 60 -42 96 -51 96 -8 0 -15 -7 -16 -16 0 -9 -3 -11 -5
-5 -3 7 -14 10 -24 7 -12 -3 -17 -10 -13 -17 4 -6 0 -5 -9 2 -12 9 -18 10 -23
2 -5 -8 -12 -5 -22 7 -8 10 -12 12 -8 6 3 -7 1 -13 -4 -13 -6 0 -11 -9 -11
-20 0 -11 -4 -20 -10 -20 -5 0 -6 7 -3 17 4 10 2 14 -4 10 -6 -4 -18 0 -26 8
-20 19 -28 19 -21 0 4 -10 0 -15 -14 -15 -11 0 -22 -7 -26 -15 -5 -15 15 -21
28 -8 12 13 31 11 46 -5 13 -14 12 -15 -3 -9 -13 5 -21 0 -28 -16 -8 -19 -9
-18 -4 7 6 26 4 28 -9 17 -10 -8 -23 -10 -33 -5 -10 4 -20 8 -23 8 -3 1 -15 7
-27 14 -19 11 -22 10 -17 -3 5 -11 2 -13 -10 -9 -9 3 -16 2 -16 -4 0 -5 -13
-12 -29 -14 -17 -2 -30 -2 -29 1 2 19 -4 21 -18 7 -10 -11 -28 -15 -51 -12
-24 2 -31 0 -24 -7 17 -17 13 -31 -4 -17 -12 10 -22 10 -39 2 -17 -8 -27 -7
-35 1 -10 9 -12 9 -9 -3 2 -11 -6 -15 -27 -16 -16 -1 -47 -9 -67 -18 -21 -9
-42 -16 -48 -16 -6 0 -8 -6 -4 -13 5 -8 2 -8 -9 2 -16 13 -22 8 -18 -13 1 -5
-4 -4 -12 2 -8 7 -17 9 -21 5 -7 -7 -31 -14 -58 -16 -10 -1 -18 -5 -18 -10 0
-4 -4 -5 -10 -2 -5 3 -10 1 -10 -6 0 -10 -3 -10 -12 -1 -16 16 -29 15 -25 0 1
-7 -4 -12 -10 -11 -17 4 -18 10 23 -93 306 -759 879 -1203 1688 -1306 150 -19
507 -16 626 6 238 43 435 110 647 221 258 134 453 282 693 524 231 232 401
457 568 749 l71 123 6 -48 c17 -137 47 -301 70 -384 55 -200 185 -413 313
-514 65 -53 214 -127 287 -145 208 -49 453 -22 661 75 216 99 439 312 597 567
44 71 57 82 57 47 0 -32 65 -219 101 -291 101 -203 264 -343 459 -395 49 -14
101 -18 210 -17 126 1 156 4 233 28 297 89 543 289 808 656 l54 75 7 -145 c14
-300 101 -500 252 -577 96 -50 313 -43 434 14 76 36 96 69 137 224 130 490
278 878 511 1339 176 349 308 567 497 820 120 160 308 352 386 394 58 31 120
38 146 16 88 -73 72 -246 -99 -1032 -132 -608 -157 -867 -110 -1150 70 -421
319 -657 694 -659 132 -1 227 20 347 76 129 60 229 132 357 255 228 220 410
483 600 870 70 142 148 320 186 424 6 16 12 27 15 25 2 -3 14 -70 25 -149 121
-822 339 -1352 610 -1479 45 -21 69 -26 135 -26 155 1 322 84 542 269 104 87
328 314 434 441 280 333 598 817 815 1238 l77 152 130 -4 c147 -4 257 10 372
46 81 26 217 89 268 125 16 11 30 18 33 16 2 -3 -12 -49 -32 -104 -177 -488
-207 -1119 -73 -1540 164 -517 572 -747 1087 -613 275 72 554 301 760 623 l51
79 11 -44 c42 -168 113 -324 192 -427 162 -210 417 -298 718 -247 260 43 478
162 690 374 174 175 291 362 358 572 70 220 66 411 -12 494 -28 29 -40 35 -74
35 -50 0 -65 -19 -111 -145 -173 -469 -409 -785 -630 -845 -131 -35 -209 56
-231 267 -36 350 138 1211 467 2303 71 236 85 327 63 406 -29 104 -117 148
-295 148 -132 -1 -207 -19 -320 -77 -107 -55 -256 -202 -346 -340 l-63 -98
-27 80 c-88 260 -246 399 -509 447 -276 50 -573 -31 -860 -234 -122 -87 -310
-273 -441 -437 -183 -230 -328 -355 -513 -445 -145 -70 -205 -84 -363 -85 -72
0 -134 3 -138 7 -4 4 18 74 48 155 99 266 166 502 204 718 25 146 25 474 0
570 -62 233 -202 388 -397 440 -69 19 -243 18 -330 -1z m220 -462 c49 -49 61
-91 67 -237 7 -169 -24 -390 -93 -670 -35 -142 -76 -275 -85 -275 -15 0 -80
100 -119 182 -76 163 -105 326 -97 551 3 114 10 170 26 225 30 103 72 182 120
225 36 33 47 37 92 37 46 0 55 -4 89 -38z m-5650 -662 c0 -5 -2 -10 -4 -10 -3
0 -8 5 -11 10 -3 6 -1 10 4 10 6 0 11 -4 11 -10z m8384 -85 c128 -61 192 -220
203 -505 23 -622 -291 -1565 -636 -1911 -104 -103 -194 -149 -295 -149 -170 0
-286 121 -347 360 -30 121 -38 408 -15 575 89 645 424 1346 749 1567 125 85
247 107 341 63z m-8630 -1 c3 -9 11 -12 18 -8 9 5 8 2 -1 -9 -18 -22 -34 -17
-36 11 -2 25 10 29 19 6z m-37 -9 c0 -8 -4 -15 -9 -15 -10 0 -11 14 -1 23 9
10 10 9 10 -8z m-34 -48 c4 3 7 2 7 -4 0 -6 -7 -13 -15 -17 -8 -3 -15 -1 -15
5 0 6 -4 7 -10 4 -5 -3 -10 -2 -10 3 0 16 13 22 25 12 7 -5 15 -7 18 -3z
m-385 -139 c-2 -7 2 -12 8 -11 6 1 11 -4 11 -11 0 -10 -6 -10 -23 -2 -17 8
-20 14 -12 23 13 16 19 16 16 1z m56 4 c3 -5 -1 -9 -9 -9 -8 0 -12 4 -9 9 3 4
7 8 9 8 2 0 6 -4 9 -8z m-64 -42 c0 -5 -7 -10 -16 -10 -8 0 -12 5 -9 10 3 6
10 10 16 10 5 0 9 -4 9 -10z m-1943 -695 c-15 -16 -19 -13 -11 9 3 9 10 13 15
10 5 -3 3 -11 -4 -19z m-1759 -606 c9 -12 9 -16 -1 -16 -7 0 -14 9 -14 20 -1
11 -1 18 0 16 2 -2 8 -11 15 -20z m77 -19 c3 -6 -1 -7 -9 -4 -18 7 -21 14 -7
14 6 0 13 -4 16 -10z m-185 -30 c0 -5 -5 -10 -11 -10 -5 0 -7 5 -4 10 3 6 8
10 11 10 2 0 4 -4 4 -10z m-4040 -464 c0 -3 -4 -8 -10 -11 -5 -3 -10 -1 -10 4
0 6 5 11 10 11 6 0 10 -2 10 -4z m-48 -13 c-6 -2 -9 -10 -6 -15 4 -7 2 -8 -4
-4 -18 11 -14 26 6 25 10 0 12 -3 4 -6z m-187 -43 c3 -6 -1 -7 -9 -4 -18 7
-21 14 -7 14 6 0 13 -4 16 -10z m35 6 c0 -3 -4 -8 -10 -11 -5 -3 -10 -1 -10 4
0 6 5 11 10 11 6 0 10 -2 10 -4z m-116 -22 c4 -12 2 -15 -9 -10 -8 3 -15 0
-15 -7 0 -9 -2 -9 -8 1 -5 7 -16 10 -25 6 -9 -3 -17 -4 -17 0 0 3 15 10 33 15
17 5 33 10 33 10 1 1 5 -6 8 -15z m-197 -39 c0 -8 -4 -12 -9 -9 -5 3 -6 10 -3
15 9 13 12 11 12 -6z m140 9 c-3 -3 -12 -4 -19 -1 -8 3 -5 6 6 6 11 1 17 -2
13 -5z m-177 -29 c-7 -9 -15 -13 -19 -10 -3 3 1 10 9 15 21 14 24 12 10 -5z
m-160 -29 c0 -2 -7 -7 -16 -10 -8 -3 -12 -2 -9 4 6 10 25 14 25 6z m70 0 c0
-2 -8 -10 -17 -17 -16 -13 -17 -12 -4 4 13 16 21 21 21 13z m-134 -18 c4 -7 3
-8 -4 -4 -7 4 -12 2 -12 -5 0 -7 -3 -10 -6 -6 -6 5 3 27 11 27 2 0 7 -5 11
-12z m-56 -28 c12 -7 10 -9 -8 -7 -12 0 -22 5 -22 9 0 11 12 10 30 -2z"/>
<path d="M10687 4804 c4 -11 8 -12 13 -4 6 9 9 9 13 -1 4 -10 6 -9 6 4 1 11
-6 17 -19 17 -14 0 -18 -5 -13 -16z"/>
<path d="M10665 4790 c-3 -5 -1 -10 4 -10 6 0 11 5 11 10 0 6 -2 10 -4 10 -3
0 -8 -4 -11 -10z"/>
<path d="M10549 4758 c-6 -21 -5 -37 2 -32 5 3 7 9 4 14 -3 4 1 11 7 13 10 4
10 6 1 6 -7 1 -13 0 -14 -1z"/>
<path d="M10510 4730 c-13 -8 -13 -11 2 -27 20 -19 37 -11 20 10 -7 8 -9 17
-5 20 9 10 0 8 -17 -3z"/>
<path d="M10170 4600 c0 -6 7 -10 15 -10 8 0 15 2 15 4 0 2 -7 6 -15 10 -8 3
-15 1 -15 -4z"/>
<path d="M8276 3873 c-6 -14 -5 -15 5 -6 7 7 10 15 7 18 -3 3 -9 -2 -12 -12z"/>
<path d="M8110 3840 c0 -5 5 -10 11 -10 5 0 7 5 4 10 -3 6 -8 10 -11 10 -2 0
-4 -4 -4 -10z"/>
<path d="M8035 3810 c3 -5 8 -10 11 -10 2 0 4 5 4 10 0 6 -5 10 -11 10 -5 0
-7 -4 -4 -10z"/>
<path d="M7936 3777 c3 -10 9 -15 12 -12 3 3 0 11 -7 18 -10 9 -11 8 -5 -6z"/>
<path d="M8006 3765 c-3 -9 0 -15 9 -15 16 0 20 16 6 24 -5 3 -11 -1 -15 -9z"/>
<path d="M7825 3718 l-20 -21 23 12 c12 6 22 16 22 21 0 13 -2 12 -25 -12z"/>
<path d="M7745 3700 c3 -5 8 -10 11 -10 2 0 4 5 4 10 0 6 -5 10 -11 10 -5 0
-7 -4 -4 -10z"/>
<path d="M7777 3699 c7 -7 15 -10 18 -7 3 3 -2 9 -12 12 -14 6 -15 5 -6 -5z"/>
<path d="M6410 3199 c13 -6 28 -15 32 -22 4 -7 6 -2 5 11 -1 18 -7 22 -32 21
-30 0 -30 0 -5 -10z"/>
<path d="M6061 3086 c-8 -10 -9 -16 -1 -21 5 -3 10 -1 10 5 0 6 5 8 10 5 6 -3
10 1 10 9 0 20 -14 21 -29 2z"/>
<path d="M5946 3075 c-21 -16 -21 -35 2 -35 15 0 15 2 2 11 -12 9 -10 10 8 6
13 -3 21 -3 18 0 -3 4 -1 11 4 18 13 16 -12 16 -34 0z"/>
<path d="M5840 3031 c-8 -3 -16 -15 -17 -26 -1 -11 0 -14 3 -7 3 6 11 9 16 6
6 -4 8 -2 4 4 -3 6 2 12 11 14 10 2 14 6 8 9 -5 4 -17 4 -25 0z"/>
<path d="M5720 2970 c0 -5 5 -10 11 -10 5 0 7 5 4 10 -3 6 -8 10 -11 10 -2 0
-4 -4 -4 -10z"/>
<path d="M1869 2616 c0 -1 -2 -8 -4 -17 -4 -21 22 -20 28 1 2 10 -2 17 -9 17
-8 0 -14 -1 -15 -1z"/>
</g>
</svg>
