<?xml version="1.0" standalone="no"?>
<!DOCTYPE svg PUBLIC "-//W3C//DTD SVG 20010904//EN"
 "http://www.w3.org/TR/2001/REC-SVG-20010904/DTD/svg10.dtd">
<svg version="1.0" xmlns="http://www.w3.org/2000/svg"
 width="268.000000pt" height="50.000000pt" viewBox="0 0 268.000000 50.000000"
 preserveAspectRatio="xMidYMid meet">

<g transform="translate(0.000000,50.000000) scale(0.100000,-0.100000)"
fill="#000000" stroke="none">
<path d="M164 466 c-3 -7 -4 -40 -2 -72 l3 -59 55 -3 c103 -4 100 -2 100 -87
0 -85 3 -83 -100 -87 l-55 -3 0 -70 0 -70 72 -3 72 -3 3 78 3 78 75 5 75 5 0
70 0 70 -75 5 -75 5 -3 78 -3 77 -70 0 c-49 0 -71 -4 -75 -14z"/>
<path d="M1505 408 c-2 -7 -5 -22 -7 -33 -3 -17 -13 -21 -63 -25 -33 -3 -66
-9 -72 -13 -9 -5 -13 -34 -13 -82 0 -92 13 -105 107 -105 l63 0 0 135 c0 124
-4 156 -15 123z m-25 -88 c19 -12 21 -113 3 -132 -20 -19 -83 -15 -99 7 -19
26 -18 100 2 119 17 18 71 21 94 6z"/>
<path d="M1586 412 c-2 -4 -1 -14 4 -22 7 -11 12 -12 21 -3 6 6 8 16 5 22 -8
13 -23 14 -30 3z"/>
<path d="M1680 286 c0 -84 4 -136 10 -136 6 0 10 29 10 68 0 88 12 104 70 100
l45 -3 3 -82 c2 -65 6 -83 17 -83 12 0 15 17 15 83 0 104 -10 117 -93 117 -56
0 -57 0 -57 29 0 17 -4 33 -10 36 -6 4 -10 -42 -10 -129z"/>
<path d="M780 250 c0 -60 4 -100 10 -100 6 0 10 30 10 70 0 57 4 74 20 90 22
22 42 25 71 10 16 -9 19 -22 19 -90 0 -64 3 -80 15 -80 12 0 15 15 15 73 0 80
15 107 58 107 39 0 52 -26 52 -106 0 -59 3 -74 15 -74 31 0 15 171 -18 192 -7
4 -69 8 -139 8 l-128 0 0 -100z"/>
<path d="M1160 343 c-29 -10 -40 -37 -40 -95 0 -77 20 -98 93 -98 28 0 59 5
67 10 11 7 -1 10 -41 10 -61 0 -93 16 -87 46 3 17 12 19 73 19 l70 0 3 42 c2
33 -1 44 -20 57 -22 15 -87 20 -118 9z m97 -21 c6 -4 15 -20 18 -35 l7 -27
-66 0 c-63 0 -66 1 -66 25 0 13 8 29 18 34 20 12 72 14 89 3z"/>
<path d="M1940 343 c-29 -10 -40 -37 -40 -99 0 -73 10 -85 80 -92 36 -3 57 0
75 12 23 15 25 23 25 86 0 60 -3 71 -22 84 -22 15 -87 20 -118 9z m106 -38
c19 -30 15 -112 -7 -126 -19 -12 -66 -11 -90 1 -27 15 -28 124 -1 139 33 20
80 13 98 -14z"/>
<path d="M2130 250 c0 -60 4 -100 10 -100 6 0 10 30 10 70 0 57 4 74 20 90 22
22 42 25 71 10 16 -9 19 -22 19 -90 0 -64 3 -80 15 -80 12 0 15 15 15 73 0 80
15 107 58 107 39 0 52 -26 52 -106 0 -59 3 -74 15 -74 31 0 15 171 -18 192 -7
4 -69 8 -139 8 l-128 0 0 -100z"/>
<path d="M2510 343 c-29 -10 -40 -37 -40 -95 0 -77 20 -98 93 -98 28 0 59 5
67 10 11 7 -1 10 -41 10 -61 0 -93 16 -87 46 3 17 12 19 73 19 l70 0 3 42 c2
33 -1 44 -20 57 -22 15 -87 20 -118 9z m97 -21 c6 -4 15 -20 18 -35 l7 -27
-66 0 c-63 0 -66 1 -66 25 0 13 8 29 18 34 20 12 72 14 89 3z"/>
<path d="M1600 321 c-5 -11 -10 -54 -10 -95 0 -61 3 -76 15 -76 12 0 15 17 15
95 0 52 -2 95 -5 95 -2 0 -9 -9 -15 -19z"/>
</g>
</svg>
